<?xml version="1.0" encoding="UTF-8" standalone="no"?>
<!DOCTYPE svg PUBLIC "-//W3C//DTD SVG 1.1//EN"
 "http://www.w3.org/Graphics/SVG/1.1/DTD/svg11.dtd">
<!-- Generated by graphviz version 2.36.0 (20140111.2315)
 -->
<!-- Title: family_tree Pages: 1 -->
<svg width="566pt" height="188pt"
 viewBox="0.00 0.00 566.00 188.00" xmlns="http://www.w3.org/2000/svg" xmlns:xlink="http://www.w3.org/1999/xlink">
<g id="graph0" class="graph" transform="scale(1 1) rotate(0) translate(4 184)">
<title>family_tree</title>
<polygon fill="white" stroke="none" points="-4,4 -4,-184 562,-184 562,4 -4,4"/>
<!-- personhash0cc175b9c0f1b6a831c399e269772661 -->
<g id="node1" class="node"><title>personhash0cc175b9c0f1b6a831c399e269772661</title>
<polygon fill="none" stroke="black" points="72,-180 18,-180 18,-144 72,-144 72,-180"/>
<text text-anchor="middle" x="45" y="-158.3" font-family="Times,serif" font-size="14.00">a</text>
</g>
<!-- personhash4a8a08f09d37b73795649038408b5f33 -->
<g id="node2" class="node"><title>personhash4a8a08f09d37b73795649038408b5f33</title>
<polygon fill="none" stroke="black" points="126,-108 72,-108 72,-72 126,-72 126,-108"/>
<text text-anchor="middle" x="99" y="-86.3" font-family="Times,serif" font-size="14.00">c</text>
</g>
<!-- personhash0cc175b9c0f1b6a831c399e269772661&#45;&gt;personhash4a8a08f09d37b73795649038408b5f33 -->
<g id="edge1" class="edge"><title>personhash0cc175b9c0f1b6a831c399e269772661&#45;&gt;personhash4a8a08f09d37b73795649038408b5f33</title>
<path fill="none" stroke="blue" d="M58.3483,-143.697C64.7568,-135.389 72.5577,-125.277 79.6057,-116.141"/>
<polygon fill="blue" stroke="blue" points="82.4684,-118.16 85.8052,-108.104 76.9259,-113.884 82.4684,-118.16"/>
</g>
<!-- personhash92eb5ffee6ae2fec3ad71c777531578f -->
<g id="node3" class="node"><title>personhash92eb5ffee6ae2fec3ad71c777531578f</title>
<polygon fill="none" stroke="black" points="54,-108 0,-108 0,-72 54,-72 54,-108"/>
<text text-anchor="middle" x="27" y="-86.3" font-family="Times,serif" font-size="14.00">b</text>
</g>
<!-- personhash0cc175b9c0f1b6a831c399e269772661&#45;&gt;personhash92eb5ffee6ae2fec3ad71c777531578f -->
<g id="edge2" class="edge"><title>personhash0cc175b9c0f1b6a831c399e269772661&#45;&gt;personhash92eb5ffee6ae2fec3ad71c777531578f</title>
<path fill="none" stroke="blue" d="M40.5506,-143.697C38.5452,-135.898 36.1308,-126.509 33.8989,-117.829"/>
<polygon fill="blue" stroke="blue" points="37.2785,-116.918 31.3983,-108.104 30.499,-118.661 37.2785,-116.918"/>
</g>
<!-- personhashe1671797c52e15f763380b45e841ec32 -->
<g id="node4" class="node"><title>personhashe1671797c52e15f763380b45e841ec32</title>
<polygon fill="none" stroke="black" points="270,-108 216,-108 216,-72 270,-72 270,-108"/>
<text text-anchor="middle" x="243" y="-86.3" font-family="Times,serif" font-size="14.00">e</text>
</g>
<!-- personhash8277e0910d750195b448797616e091ad -->
<g id="node5" class="node"><title>personhash8277e0910d750195b448797616e091ad</title>
<polygon fill="none" stroke="black" points="306,-180 252,-180 252,-144 306,-144 306,-180"/>
<text text-anchor="middle" x="279" y="-158.3" font-family="Times,serif" font-size="14.00">d</text>
</g>
<!-- personhash8277e0910d750195b448797616e091ad&#45;&gt;personhashe1671797c52e15f763380b45e841ec32 -->
<g id="edge4" class="edge"><title>personhash8277e0910d750195b448797616e091ad&#45;&gt;personhashe1671797c52e15f763380b45e841ec32</title>
<path fill="none" stroke="blue" d="M270.101,-143.697C266.003,-135.728 261.051,-126.1 256.507,-117.264"/>
<polygon fill="blue" stroke="blue" points="259.483,-115.396 251.797,-108.104 253.258,-118.598 259.483,-115.396"/>
</g>
<!-- personhash8ce4b16b22b58894aa86c421e8759df3 -->
<g id="node10" class="node"><title>personhash8ce4b16b22b58894aa86c421e8759df3</title>
<polygon fill="none" stroke="black" points="342,-108 288,-108 288,-72 342,-72 342,-108"/>
<text text-anchor="middle" x="315" y="-86.3" font-family="Times,serif" font-size="14.00">k</text>
</g>
<!-- personhash8277e0910d750195b448797616e091ad&#45;&gt;personhash8ce4b16b22b58894aa86c421e8759df3 -->
<g id="edge3" class="edge"><title>personhash8277e0910d750195b448797616e091ad&#45;&gt;personhash8ce4b16b22b58894aa86c421e8759df3</title>
<path fill="none" stroke="blue" d="M287.899,-143.697C291.997,-135.728 296.949,-126.1 301.493,-117.264"/>
<polygon fill="blue" stroke="blue" points="304.742,-118.598 306.203,-108.104 298.517,-115.396 304.742,-118.598"/>
</g>
<!-- personhashb2f5ff47436671b6e533d8dc3614845d -->
<g id="node6" class="node"><title>personhashb2f5ff47436671b6e533d8dc3614845d</title>
<polygon fill="none" stroke="black" points="414,-108 360,-108 360,-72 414,-72 414,-108"/>
<text text-anchor="middle" x="387" y="-86.3" font-family="Times,serif" font-size="14.00">g</text>
</g>
<!-- personhash8fa14cdd754f91cc6554c9e71929cce7 -->
<g id="node7" class="node"><title>personhash8fa14cdd754f91cc6554c9e71929cce7</title>
<polygon fill="none" stroke="black" points="450,-180 396,-180 396,-144 450,-144 450,-180"/>
<text text-anchor="middle" x="423" y="-158.3" font-family="Times,serif" font-size="14.00">f</text>
</g>
<!-- personhash8fa14cdd754f91cc6554c9e71929cce7&#45;&gt;personhashb2f5ff47436671b6e533d8dc3614845d -->
<g id="edge8" class="edge"><title>personhash8fa14cdd754f91cc6554c9e71929cce7&#45;&gt;personhashb2f5ff47436671b6e533d8dc3614845d</title>
<path fill="none" stroke="orange" d="M414.101,-143.697C410.003,-135.728 405.051,-126.1 400.507,-117.264"/>
<polygon fill="orange" stroke="orange" points="403.483,-115.396 395.797,-108.104 397.258,-118.598 403.483,-115.396"/>
</g>
<!-- personhash2510c39011c5be704182423e3a695e91 -->
<g id="node9" class="node"><title>personhash2510c39011c5be704182423e3a695e91</title>
<polygon fill="none" stroke="black" points="486,-108 432,-108 432,-72 486,-72 486,-108"/>
<text text-anchor="middle" x="459" y="-86.3" font-family="Times,serif" font-size="14.00">h</text>
</g>
<!-- personhash8fa14cdd754f91cc6554c9e71929cce7&#45;&gt;personhash2510c39011c5be704182423e3a695e91 -->
<g id="edge7" class="edge"><title>personhash8fa14cdd754f91cc6554c9e71929cce7&#45;&gt;personhash2510c39011c5be704182423e3a695e91</title>
<path fill="none" stroke="orange" d="M431.899,-143.697C435.997,-135.728 440.949,-126.1 445.493,-117.264"/>
<polygon fill="orange" stroke="orange" points="448.742,-118.598 450.203,-108.104 442.517,-115.396 448.742,-118.598"/>
</g>
<!-- personhash865c0c0b4ab0e063e5caa3387c1a8741 -->
<g id="node8" class="node"><title>personhash865c0c0b4ab0e063e5caa3387c1a8741</title>
<polygon fill="none" stroke="black" points="180,-180 126,-180 126,-144 180,-144 180,-180"/>
<text text-anchor="middle" x="153" y="-158.3" font-family="Times,serif" font-size="14.00">i</text>
</g>
<!-- personhash865c0c0b4ab0e063e5caa3387c1a8741&#45;&gt;personhash4a8a08f09d37b73795649038408b5f33 -->
<g id="edge5" class="edge"><title>personhash865c0c0b4ab0e063e5caa3387c1a8741&#45;&gt;personhash4a8a08f09d37b73795649038408b5f33</title>
<path fill="none" stroke="orange" d="M139.652,-143.697C133.243,-135.389 125.442,-125.277 118.394,-116.141"/>
<polygon fill="orange" stroke="orange" points="121.074,-113.884 112.195,-108.104 115.532,-118.16 121.074,-113.884"/>
</g>
<!-- personhash363b122c528f54df4a0446b6bab05515 -->
<g id="node11" class="node"><title>personhash363b122c528f54df4a0446b6bab05515</title>
<polygon fill="none" stroke="black" points="198,-108 144,-108 144,-72 198,-72 198,-108"/>
<text text-anchor="middle" x="171" y="-86.3" font-family="Times,serif" font-size="14.00">j</text>
</g>
<!-- personhash865c0c0b4ab0e063e5caa3387c1a8741&#45;&gt;personhash363b122c528f54df4a0446b6bab05515 -->
<g id="edge6" class="edge"><title>personhash865c0c0b4ab0e063e5caa3387c1a8741&#45;&gt;personhash363b122c528f54df4a0446b6bab05515</title>
<path fill="none" stroke="orange" d="M157.449,-143.697C159.455,-135.898 161.869,-126.509 164.101,-117.829"/>
<polygon fill="orange" stroke="orange" points="167.501,-118.661 166.602,-108.104 160.722,-116.918 167.501,-118.661"/>
</g>
<!-- personhash6f8f57715090da2632453988d9a1501b -->
<g id="node12" class="node"><title>personhash6f8f57715090da2632453988d9a1501b</title>
<polygon fill="none" stroke="black" points="306,-36 252,-36 252,-0 306,-0 306,-36"/>
<text text-anchor="middle" x="279" y="-14.3" font-family="Times,serif" font-size="14.00">m</text>
</g>
<!-- personhash8ce4b16b22b58894aa86c421e8759df3&#45;&gt;personhash6f8f57715090da2632453988d9a1501b -->
<g id="edge9" class="edge"><title>personhash8ce4b16b22b58894aa86c421e8759df3&#45;&gt;personhash6f8f57715090da2632453988d9a1501b</title>
<path fill="none" stroke="black" stroke-dasharray="1,5" d="M300.185,-71.6966C295.266,-63.7284 290.099,-54.0995 285.948,-45.2641"/>
<polygon fill="black" stroke="black" points="289.144,-43.8373 281.901,-36.1043 282.741,-46.6659 289.144,-43.8373"/>
</g>
<!-- personhash2db95e8e1a9267b7a1188556b2013b33 -->
<g id="node13" class="node"><title>personhash2db95e8e1a9267b7a1188556b2013b33</title>
<polygon fill="none" stroke="black" points="378,-36 324,-36 324,-0 378,-0 378,-36"/>
<text text-anchor="middle" x="351" y="-14.3" font-family="Times,serif" font-size="14.00">l</text>
</g>
<!-- personhash8ce4b16b22b58894aa86c421e8759df3&#45;&gt;personhash2db95e8e1a9267b7a1188556b2013b33 -->
<g id="edge10" class="edge"><title>personhash8ce4b16b22b58894aa86c421e8759df3&#45;&gt;personhash2db95e8e1a9267b7a1188556b2013b33</title>
<path fill="none" stroke="black" stroke-dasharray="1,5" d="M317.983,-71.6966C321.294,-63.6436 326.098,-53.8945 331.091,-44.9824"/>
<polygon fill="black" stroke="black" points="334.259,-46.4991 336.308,-36.1043 328.224,-42.9523 334.259,-46.4991"/>
</g>
<!-- personhash6f8f57715090da2632453988d9a1501b&#45;&gt;personhash8ce4b16b22b58894aa86c421e8759df3 -->
<g id="edge11" class="edge"><title>personhash6f8f57715090da2632453988d9a1501b&#45;&gt;personhash8ce4b16b22b58894aa86c421e8759df3</title>
<path fill="none" stroke="black" stroke-dasharray="1,5" d="M293.692,-36.1043C298.607,-44.0447 303.78,-53.6661 307.948,-62.5146"/>
<polygon fill="black" stroke="black" points="304.766,-63.9719 312.017,-71.6966 311.165,-61.136 304.766,-63.9719"/>
</g>
<!-- personhash2db95e8e1a9267b7a1188556b2013b33&#45;&gt;personhash8ce4b16b22b58894aa86c421e8759df3 -->
<g id="edge12" class="edge"><title>personhash2db95e8e1a9267b7a1188556b2013b33&#45;&gt;personhash8ce4b16b22b58894aa86c421e8759df3</title>
<path fill="none" stroke="black" stroke-dasharray="1,5" d="M348.099,-36.1043C344.812,-44.1291 340.023,-53.871 335.033,-62.7967"/>
<polygon fill="black" stroke="black" points="331.853,-61.2998 329.815,-71.6966 337.892,-64.8403 331.853,-61.2998"/>
</g>
<!-- personhashd95679752134a2d9eb61dbd7b91c4bcc -->
<g id="node14" class="node"><title>personhashd95679752134a2d9eb61dbd7b91c4bcc</title>
<polygon fill="none" stroke="black" points="558,-180 504,-180 504,-144 558,-144 558,-180"/>
<text text-anchor="middle" x="531" y="-158.3" font-family="Times,serif" font-size="14.00">o</text>
</g>
<!-- personhash7b8b965ad4bca0e41ab51de7b31363a1 -->
<g id="node15" class="node"><title>personhash7b8b965ad4bca0e41ab51de7b31363a1</title>
<polygon fill="none" stroke="black" points="558,-108 504,-108 504,-72 558,-72 558,-108"/>
<text text-anchor="middle" x="531" y="-86.3" font-family="Times,serif" font-size="14.00">n</text>
</g>
<!-- personhashd95679752134a2d9eb61dbd7b91c4bcc&#45;&gt;personhash7b8b965ad4bca0e41ab51de7b31363a1 -->
<g id="edge13" class="edge"><title>personhashd95679752134a2d9eb61dbd7b91c4bcc&#45;&gt;personhash7b8b965ad4bca0e41ab51de7b31363a1</title>
<path fill="none" stroke="black" stroke-dasharray="1,5" d="M525.084,-143.697C524.289,-135.983 524.062,-126.712 524.405,-118.112"/>
<polygon fill="black" stroke="black" points="527.898,-118.324 525.105,-108.104 520.915,-117.836 527.898,-118.324"/>
</g>
<!-- personhash7b8b965ad4bca0e41ab51de7b31363a1&#45;&gt;personhashd95679752134a2d9eb61dbd7b91c4bcc -->
<g id="edge14" class="edge"><title>personhash7b8b965ad4bca0e41ab51de7b31363a1&#45;&gt;personhashd95679752134a2d9eb61dbd7b91c4bcc</title>
<path fill="none" stroke="black" stroke-dasharray="1,5" d="M536.895,-108.104C537.701,-115.791 537.937,-125.054 537.604,-133.665"/>
<polygon fill="black" stroke="black" points="534.109,-133.48 536.916,-143.697 541.092,-133.96 534.109,-133.48"/>
</g>
</g>
</svg>
