<?xml version="1.0" encoding="UTF-8" standalone="no"?>
<!DOCTYPE svg PUBLIC "-//W3C//DTD SVG 1.1//EN"
 "http://www.w3.org/Graphics/SVG/1.1/DTD/svg11.dtd">
<!-- Generated by graphviz version 2.36.0 (20140111.2315)
 -->
<!-- Title: family_tree Pages: 1 -->
<svg width="871pt" height="332pt"
 viewBox="0.00 0.00 871.00 332.00" xmlns="http://www.w3.org/2000/svg" xmlns:xlink="http://www.w3.org/1999/xlink">
<g id="graph0" class="graph" transform="scale(1 1) rotate(0) translate(4 328)">
<title>family_tree</title>
<polygon fill="white" stroke="none" points="-4,4 -4,-328 867,-328 867,4 -4,4"/>
<!-- personhash50d359571a4555711e46017cc54beeda -->
<g id="node1" class="node"><title>personhash50d359571a4555711e46017cc54beeda</title>
<polygon fill="none" stroke="black" points="253.25,-180 116.75,-180 116.75,-144 253.25,-144 253.25,-180"/>
<text text-anchor="middle" x="185" y="-158.3" font-family="Times,serif" font-size="14.00">Betty Jean McBricker</text>
</g>
<!-- personhash2bafddd63f0b0592955c03dd2b0d0300 -->
<g id="node4" class="node"><title>personhash2bafddd63f0b0592955c03dd2b0d0300</title>
<polygon fill="none" stroke="black" points="260.25,-108 121.75,-108 121.75,-72 260.25,-72 260.25,-108"/>
<text text-anchor="middle" x="191" y="-86.3" font-family="Times,serif" font-size="14.00">Bamm&#45;Bamm Rubble</text>
</g>
<!-- personhash50d359571a4555711e46017cc54beeda&#45;&gt;personhash2bafddd63f0b0592955c03dd2b0d0300 -->
<g id="edge9" class="edge"><title>personhash50d359571a4555711e46017cc54beeda&#45;&gt;personhash2bafddd63f0b0592955c03dd2b0d0300</title>
<path fill="none" stroke="orange" d="M186.483,-143.697C187.144,-135.983 187.939,-126.712 188.676,-118.112"/>
<polygon fill="orange" stroke="orange" points="192.167,-118.367 189.534,-108.104 185.193,-117.769 192.167,-118.367"/>
</g>
<!-- personhashcbca31e545cad611edbfc3682a036912 -->
<g id="node2" class="node"><title>personhashcbca31e545cad611edbfc3682a036912</title>
<polygon fill="none" stroke="black" points="97.5,-180 0.5,-180 0.5,-144 97.5,-144 97.5,-180"/>
<text text-anchor="middle" x="49" y="-158.3" font-family="Times,serif" font-size="14.00">Barney Rubble</text>
</g>
<!-- personhashcbca31e545cad611edbfc3682a036912&#45;&gt;personhash2bafddd63f0b0592955c03dd2b0d0300 -->
<g id="edge5" class="edge"><title>personhashcbca31e545cad611edbfc3682a036912&#45;&gt;personhash2bafddd63f0b0592955c03dd2b0d0300</title>
<path fill="none" stroke="blue" d="M83.7371,-143.876C102.819,-134.469 126.679,-122.708 147.047,-112.667"/>
<polygon fill="blue" stroke="blue" points="148.708,-115.751 156.129,-108.19 145.612,-109.472 148.708,-115.751"/>
</g>
<!-- personhash1e20d4807103602e59e031553764eb1a -->
<g id="node3" class="node"><title>personhash1e20d4807103602e59e031553764eb1a</title>
<polygon fill="none" stroke="black" points="863.25,-252 762.75,-252 762.75,-216 863.25,-216 863.25,-252"/>
<text text-anchor="middle" x="813" y="-230.3" font-family="Times,serif" font-size="14.00">Zeke Flintstone</text>
</g>
<!-- personhash471e5990486b9699975bcae2e85078a6 -->
<g id="node6" class="node"><title>personhash471e5990486b9699975bcae2e85078a6</title>
<polygon fill="none" stroke="black" points="258.25,-36 169.75,-36 169.75,-0 258.25,-0 258.25,-36"/>
<text text-anchor="middle" x="214" y="-14.3" font-family="Times,serif" font-size="14.00">Roxy Rubble</text>
</g>
<!-- personhash2bafddd63f0b0592955c03dd2b0d0300&#45;&gt;personhash471e5990486b9699975bcae2e85078a6 -->
<g id="edge2" class="edge"><title>personhash2bafddd63f0b0592955c03dd2b0d0300&#45;&gt;personhash471e5990486b9699975bcae2e85078a6</title>
<path fill="none" stroke="blue" d="M196.685,-71.6966C199.248,-63.8979 202.333,-54.5085 205.185,-45.8292"/>
<polygon fill="blue" stroke="blue" points="208.584,-46.6972 208.38,-36.1043 201.933,-44.5121 208.584,-46.6972"/>
</g>
<!-- personhash7820a15a01dd041c5ba31bfc68e4c968 -->
<g id="node13" class="node"><title>personhash7820a15a01dd041c5ba31bfc68e4c968</title>
<polygon fill="none" stroke="black" points="374,-36 288,-36 288,-0 374,-0 374,-36"/>
<text text-anchor="middle" x="331" y="-14.3" font-family="Times,serif" font-size="14.00">Chip Rubble</text>
</g>
<!-- personhash2bafddd63f0b0592955c03dd2b0d0300&#45;&gt;personhash7820a15a01dd041c5ba31bfc68e4c968 -->
<g id="edge3" class="edge"><title>personhash2bafddd63f0b0592955c03dd2b0d0300&#45;&gt;personhash7820a15a01dd041c5ba31bfc68e4c968</title>
<path fill="none" stroke="blue" d="M225.248,-71.8761C244.061,-62.4693 267.585,-50.7077 287.666,-40.6672"/>
<polygon fill="blue" stroke="blue" points="289.241,-43.7924 296.62,-36.1898 286.111,-37.5314 289.241,-43.7924"/>
</g>
<!-- personhash6ec35b66cd6e0a3511d069d5f3426c26 -->
<g id="node5" class="node"><title>personhash6ec35b66cd6e0a3511d069d5f3426c26</title>
<polygon fill="none" stroke="black" points="445.25,-252 296.75,-252 296.75,-216 445.25,-216 445.25,-252"/>
<text text-anchor="middle" x="371" y="-230.3" font-family="Times,serif" font-size="14.00">Pearl Pebble Slaghoople</text>
</g>
<!-- personhash446a043e926d57d0178e6b253fc9474b -->
<g id="node14" class="node"><title>personhash446a043e926d57d0178e6b253fc9474b</title>
<polygon fill="none" stroke="black" points="436.25,-180 271.75,-180 271.75,-144 436.25,-144 436.25,-180"/>
<text text-anchor="middle" x="354" y="-158.3" font-family="Times,serif" font-size="14.00">Wilma Pebbles Slaghoople</text>
</g>
<!-- personhash6ec35b66cd6e0a3511d069d5f3426c26&#45;&gt;personhash446a043e926d57d0178e6b253fc9474b -->
<g id="edge13" class="edge"><title>personhash6ec35b66cd6e0a3511d069d5f3426c26&#45;&gt;personhash446a043e926d57d0178e6b253fc9474b</title>
<path fill="none" stroke="orange" d="M366.798,-215.697C364.904,-207.898 362.623,-198.509 360.516,-189.829"/>
<polygon fill="orange" stroke="orange" points="363.915,-188.996 358.154,-180.104 357.113,-190.648 363.915,-188.996"/>
</g>
<!-- personhash531f6f0f0fbd8faa929ba5a5f044b523 -->
<g id="node7" class="node"><title>personhash531f6f0f0fbd8faa929ba5a5f044b523</title>
<polygon fill="none" stroke="black" points="608.25,-108 507.75,-108 507.75,-72 608.25,-72 608.25,-108"/>
<text text-anchor="middle" x="558" y="-86.3" font-family="Times,serif" font-size="14.00">Secret Ex&#45;Wife</text>
</g>
<!-- personhash2684a38f86d8cdd3eb928ec06f3e06dc -->
<g id="node16" class="node"><title>personhash2684a38f86d8cdd3eb928ec06f3e06dc</title>
<polygon fill="none" stroke="black" points="661.25,-180 454.75,-180 454.75,-144 661.25,-144 661.25,-180"/>
<text text-anchor="middle" x="558" y="-158.3" font-family="Times,serif" font-size="14.00">Frederick Joseph &quot;Fred&quot; Flintstone</text>
</g>
<!-- personhash531f6f0f0fbd8faa929ba5a5f044b523&#45;&gt;personhash2684a38f86d8cdd3eb928ec06f3e06dc -->
<g id="edge17" class="edge"><title>personhash531f6f0f0fbd8faa929ba5a5f044b523&#45;&gt;personhash2684a38f86d8cdd3eb928ec06f3e06dc</title>
<path fill="none" stroke="black" stroke-dasharray="1,5" d="M563.895,-108.104C564.701,-115.791 564.937,-125.054 564.604,-133.665"/>
<polygon fill="black" stroke="black" points="561.109,-133.48 563.916,-143.697 568.092,-133.96 561.109,-133.48"/>
</g>
<!-- personhash99214cc86351178547810bf9ec9165ce -->
<g id="node8" class="node"><title>personhash99214cc86351178547810bf9ec9165ce</title>
<polygon fill="none" stroke="black" points="278.25,-252 165.75,-252 165.75,-216 278.25,-216 278.25,-252"/>
<text text-anchor="middle" x="222" y="-230.3" font-family="Times,serif" font-size="14.00">Ricky Slaghoople</text>
</g>
<!-- personhash99214cc86351178547810bf9ec9165ce&#45;&gt;personhash446a043e926d57d0178e6b253fc9474b -->
<g id="edge1" class="edge"><title>personhash99214cc86351178547810bf9ec9165ce&#45;&gt;personhash446a043e926d57d0178e6b253fc9474b</title>
<path fill="none" stroke="blue" d="M254.291,-215.876C271.869,-206.554 293.809,-194.919 312.629,-184.939"/>
<polygon fill="blue" stroke="blue" points="314.39,-187.967 321.585,-180.19 311.111,-181.783 314.39,-187.967"/>
</g>
<!-- personhashf3bd41d554a73d4405246f6a1716e24e -->
<g id="node9" class="node"><title>personhashf3bd41d554a73d4405246f6a1716e24e</title>
<polygon fill="none" stroke="black" points="569.25,-252 480.75,-252 480.75,-216 569.25,-216 569.25,-252"/>
<text text-anchor="middle" x="525" y="-230.3" font-family="Times,serif" font-size="14.00">Ed Flintstone</text>
</g>
<!-- personhashf3bd41d554a73d4405246f6a1716e24e&#45;&gt;personhash2684a38f86d8cdd3eb928ec06f3e06dc -->
<g id="edge4" class="edge"><title>personhashf3bd41d554a73d4405246f6a1716e24e&#45;&gt;personhash2684a38f86d8cdd3eb928ec06f3e06dc</title>
<path fill="none" stroke="blue" d="M533.157,-215.697C536.914,-207.728 541.453,-198.1 545.618,-189.264"/>
<polygon fill="blue" stroke="blue" points="548.838,-190.642 549.937,-180.104 542.506,-187.657 548.838,-190.642"/>
</g>
<!-- personhashfc3be81c9d0f1cb98834b7454d0a8e4c -->
<g id="node10" class="node"><title>personhashfc3be81c9d0f1cb98834b7454d0a8e4c</title>
<polygon fill="none" stroke="black" points="744.25,-252 587.75,-252 587.75,-216 744.25,-216 744.25,-252"/>
<text text-anchor="middle" x="666" y="-230.3" font-family="Times,serif" font-size="14.00">Edna Hardrock Flintstone</text>
</g>
<!-- personhashfc3be81c9d0f1cb98834b7454d0a8e4c&#45;&gt;personhash2684a38f86d8cdd3eb928ec06f3e06dc -->
<g id="edge10" class="edge"><title>personhashfc3be81c9d0f1cb98834b7454d0a8e4c&#45;&gt;personhash2684a38f86d8cdd3eb928ec06f3e06dc</title>
<path fill="none" stroke="orange" d="M639.58,-215.876C625.59,-206.808 608.224,-195.552 593.114,-185.759"/>
<polygon fill="orange" stroke="orange" points="594.817,-182.692 584.521,-180.19 591.009,-188.566 594.817,-182.692"/>
</g>
<!-- personhashe94f0bfab8c987a7437ba4e1697c1cc0 -->
<g id="node11" class="node"><title>personhashe94f0bfab8c987a7437ba4e1697c1cc0</title>
<polygon fill="none" stroke="black" points="660,-324 606,-324 606,-288 660,-288 660,-324"/>
<text text-anchor="middle" x="633" y="-302.3" font-family="Times,serif" font-size="14.00">????</text>
</g>
<!-- personhashe94f0bfab8c987a7437ba4e1697c1cc0&#45;&gt;personhash1e20d4807103602e59e031553764eb1a -->
<g id="edge16" class="edge"><title>personhashe94f0bfab8c987a7437ba4e1697c1cc0&#45;&gt;personhash1e20d4807103602e59e031553764eb1a</title>
<path fill="none" stroke="orange" d="M660.338,-294.369C686.655,-284.134 727.162,-268.381 759.839,-255.674"/>
<polygon fill="orange" stroke="orange" points="761.214,-258.894 769.265,-252.008 758.677,-252.37 761.214,-258.894"/>
</g>
<!-- personhashe94f0bfab8c987a7437ba4e1697c1cc0&#45;&gt;personhashf3bd41d554a73d4405246f6a1716e24e -->
<g id="edge15" class="edge"><title>personhashe94f0bfab8c987a7437ba4e1697c1cc0&#45;&gt;personhashf3bd41d554a73d4405246f6a1716e24e</title>
<path fill="none" stroke="orange" d="M606.58,-287.876C592.59,-278.808 575.224,-267.552 560.114,-257.759"/>
<polygon fill="orange" stroke="orange" points="561.817,-254.692 551.521,-252.19 558.009,-260.566 561.817,-254.692"/>
</g>
<!-- personhash164e6f763be8a5c46463905765973a1a -->
<g id="node12" class="node"><title>personhash164e6f763be8a5c46463905765973a1a</title>
<polygon fill="none" stroke="black" points="400.5,-108 285.5,-108 285.5,-72 400.5,-72 400.5,-108"/>
<text text-anchor="middle" x="343" y="-86.3" font-family="Times,serif" font-size="14.00">Pebbles Flintstone</text>
</g>
<!-- personhash164e6f763be8a5c46463905765973a1a&#45;&gt;personhash471e5990486b9699975bcae2e85078a6 -->
<g id="edge11" class="edge"><title>personhash164e6f763be8a5c46463905765973a1a&#45;&gt;personhash471e5990486b9699975bcae2e85078a6</title>
<path fill="none" stroke="orange" d="M311.443,-71.8761C294.342,-62.5965 273.018,-51.0251 254.681,-41.0752"/>
<polygon fill="orange" stroke="orange" points="256.137,-37.8829 245.678,-36.1898 252.798,-44.0355 256.137,-37.8829"/>
</g>
<!-- personhash164e6f763be8a5c46463905765973a1a&#45;&gt;personhash7820a15a01dd041c5ba31bfc68e4c968 -->
<g id="edge12" class="edge"><title>personhash164e6f763be8a5c46463905765973a1a&#45;&gt;personhash7820a15a01dd041c5ba31bfc68e4c968</title>
<path fill="none" stroke="orange" d="M340.034,-71.6966C338.711,-63.9827 337.122,-54.7125 335.648,-46.1124"/>
<polygon fill="orange" stroke="orange" points="339.072,-45.3692 333.932,-36.1043 332.172,-46.552 339.072,-45.3692"/>
</g>
<!-- personhash446a043e926d57d0178e6b253fc9474b&#45;&gt;personhash164e6f763be8a5c46463905765973a1a -->
<g id="edge14" class="edge"><title>personhash446a043e926d57d0178e6b253fc9474b&#45;&gt;personhash164e6f763be8a5c46463905765973a1a</title>
<path fill="none" stroke="orange" d="M351.281,-143.697C350.069,-135.983 348.612,-126.712 347.261,-118.112"/>
<polygon fill="orange" stroke="orange" points="350.698,-117.44 345.688,-108.104 343.783,-118.526 350.698,-117.44"/>
</g>
<!-- personhash0d1b08c34858921bc7c662b228acb7ba -->
<g id="node15" class="node"><title>personhash0d1b08c34858921bc7c662b228acb7ba</title>
<polygon fill="none" stroke="black" points="786,-324 732,-324 732,-288 786,-288 786,-324"/>
<text text-anchor="middle" x="759" y="-302.3" font-family="Times,serif" font-size="14.00">???</text>
</g>
<!-- personhash0d1b08c34858921bc7c662b228acb7ba&#45;&gt;personhash1e20d4807103602e59e031553764eb1a -->
<g id="edge7" class="edge"><title>personhash0d1b08c34858921bc7c662b228acb7ba&#45;&gt;personhash1e20d4807103602e59e031553764eb1a</title>
<path fill="none" stroke="blue" d="M772.348,-287.697C778.757,-279.389 786.558,-269.277 793.606,-260.141"/>
<polygon fill="blue" stroke="blue" points="796.468,-262.16 799.805,-252.104 790.926,-257.884 796.468,-262.16"/>
</g>
<!-- personhash0d1b08c34858921bc7c662b228acb7ba&#45;&gt;personhashf3bd41d554a73d4405246f6a1716e24e -->
<g id="edge6" class="edge"><title>personhash0d1b08c34858921bc7c662b228acb7ba&#45;&gt;personhashf3bd41d554a73d4405246f6a1716e24e</title>
<path fill="none" stroke="blue" d="M731.95,-297.313C698.311,-287.702 638.899,-270.563 579.103,-252.305"/>
<polygon fill="blue" stroke="blue" points="580.094,-248.948 569.507,-249.367 578.044,-255.642 580.094,-248.948"/>
</g>
<!-- personhash2684a38f86d8cdd3eb928ec06f3e06dc&#45;&gt;personhash531f6f0f0fbd8faa929ba5a5f044b523 -->
<g id="edge18" class="edge"><title>personhash2684a38f86d8cdd3eb928ec06f3e06dc&#45;&gt;personhash531f6f0f0fbd8faa929ba5a5f044b523</title>
<path fill="none" stroke="black" stroke-dasharray="1,5" d="M552.084,-143.697C551.289,-135.983 551.062,-126.712 551.405,-118.112"/>
<polygon fill="black" stroke="black" points="554.898,-118.324 552.105,-108.104 547.915,-117.836 554.898,-118.324"/>
</g>
<!-- personhash2684a38f86d8cdd3eb928ec06f3e06dc&#45;&gt;personhash164e6f763be8a5c46463905765973a1a -->
<g id="edge8" class="edge"><title>personhash2684a38f86d8cdd3eb928ec06f3e06dc&#45;&gt;personhash164e6f763be8a5c46463905765973a1a</title>
<path fill="none" stroke="blue" d="M505.68,-143.966C475.378,-134.1 437.052,-121.622 405.212,-111.255"/>
<polygon fill="blue" stroke="blue" points="406.147,-107.879 395.555,-108.111 403.98,-114.535 406.147,-107.879"/>
</g>
</g>
</svg>
