<?xml version="1.0" encoding="UTF-8" standalone="no"?>
<!DOCTYPE svg PUBLIC "-//W3C//DTD SVG 1.1//EN"
 "http://www.w3.org/Graphics/SVG/1.1/DTD/svg11.dtd">
<!-- Generated by graphviz version 2.36.0 (20140111.2315)
 -->
<!-- Title: family_tree Pages: 1 -->
<svg width="877pt" height="332pt"
 viewBox="0.00 0.00 877.00 332.00" xmlns="http://www.w3.org/2000/svg" xmlns:xlink="http://www.w3.org/1999/xlink">
<g id="graph0" class="graph" transform="scale(1 1) rotate(0) translate(4 328)">
<title>family_tree</title>
<polygon fill="white" stroke="none" points="-4,4 -4,-328 873,-328 873,4 -4,4"/>
<!-- personhash50d359571a4555711e46017cc54beeda -->
<g id="node1" class="node"><title>personhash50d359571a4555711e46017cc54beeda</title>
<polygon fill="none" stroke="black" points="869.25,-180 732.75,-180 732.75,-144 869.25,-144 869.25,-180"/>
<text text-anchor="middle" x="801" y="-158.3" font-family="Times,serif" font-size="14.00">Betty Jean McBricker</text>
</g>
<!-- personhash2bafddd63f0b0592955c03dd2b0d0300 -->
<g id="node4" class="node"><title>personhash2bafddd63f0b0592955c03dd2b0d0300</title>
<polygon fill="none" stroke="black" points="734.25,-108 595.75,-108 595.75,-72 734.25,-72 734.25,-108"/>
<text text-anchor="middle" x="665" y="-86.3" font-family="Times,serif" font-size="14.00">Bamm&#45;Bamm Rubble</text>
</g>
<!-- personhash50d359571a4555711e46017cc54beeda&#45;&gt;personhash2bafddd63f0b0592955c03dd2b0d0300 -->
<g id="edge9" class="edge"><title>personhash50d359571a4555711e46017cc54beeda&#45;&gt;personhash2bafddd63f0b0592955c03dd2b0d0300</title>
<path fill="none" stroke="orange" d="M767.731,-143.876C749.537,-134.512 726.809,-122.814 707.36,-112.803"/>
<polygon fill="orange" stroke="orange" points="708.89,-109.654 698.397,-108.19 705.687,-115.878 708.89,-109.654"/>
</g>
<!-- personhashcbca31e545cad611edbfc3682a036912 -->
<g id="node2" class="node"><title>personhashcbca31e545cad611edbfc3682a036912</title>
<polygon fill="none" stroke="black" points="713.5,-180 616.5,-180 616.5,-144 713.5,-144 713.5,-180"/>
<text text-anchor="middle" x="665" y="-158.3" font-family="Times,serif" font-size="14.00">Barney Rubble</text>
</g>
<!-- personhashcbca31e545cad611edbfc3682a036912&#45;&gt;personhash2bafddd63f0b0592955c03dd2b0d0300 -->
<g id="edge5" class="edge"><title>personhashcbca31e545cad611edbfc3682a036912&#45;&gt;personhash2bafddd63f0b0592955c03dd2b0d0300</title>
<path fill="none" stroke="blue" d="M665,-143.697C665,-135.983 665,-126.712 665,-118.112"/>
<polygon fill="blue" stroke="blue" points="668.5,-118.104 665,-108.104 661.5,-118.104 668.5,-118.104"/>
</g>
<!-- personhash1e20d4807103602e59e031553764eb1a -->
<g id="node3" class="node"><title>personhash1e20d4807103602e59e031553764eb1a</title>
<polygon fill="none" stroke="black" points="231.25,-252 130.75,-252 130.75,-216 231.25,-216 231.25,-252"/>
<text text-anchor="middle" x="181" y="-230.3" font-family="Times,serif" font-size="14.00">Zeke Flintstone</text>
</g>
<!-- personhash471e5990486b9699975bcae2e85078a6 -->
<g id="node6" class="node"><title>personhash471e5990486b9699975bcae2e85078a6</title>
<polygon fill="none" stroke="black" points="669.25,-36 580.75,-36 580.75,-0 669.25,-0 669.25,-36"/>
<text text-anchor="middle" x="625" y="-14.3" font-family="Times,serif" font-size="14.00">Roxy Rubble</text>
</g>
<!-- personhash2bafddd63f0b0592955c03dd2b0d0300&#45;&gt;personhash471e5990486b9699975bcae2e85078a6 -->
<g id="edge2" class="edge"><title>personhash2bafddd63f0b0592955c03dd2b0d0300&#45;&gt;personhash471e5990486b9699975bcae2e85078a6</title>
<path fill="none" stroke="blue" d="M655.112,-71.6966C650.511,-63.6436 644.94,-53.8945 639.847,-44.9824"/>
<polygon fill="blue" stroke="blue" points="642.774,-43.0503 634.774,-36.1043 636.696,-46.5233 642.774,-43.0503"/>
</g>
<!-- personhash7820a15a01dd041c5ba31bfc68e4c968 -->
<g id="node13" class="node"><title>personhash7820a15a01dd041c5ba31bfc68e4c968</title>
<polygon fill="none" stroke="black" points="522,-36 436,-36 436,-0 522,-0 522,-36"/>
<text text-anchor="middle" x="479" y="-14.3" font-family="Times,serif" font-size="14.00">Chip Rubble</text>
</g>
<!-- personhash2bafddd63f0b0592955c03dd2b0d0300&#45;&gt;personhash7820a15a01dd041c5ba31bfc68e4c968 -->
<g id="edge3" class="edge"><title>personhash2bafddd63f0b0592955c03dd2b0d0300&#45;&gt;personhash7820a15a01dd041c5ba31bfc68e4c968</title>
<path fill="none" stroke="blue" d="M619.499,-71.8761C592.946,-61.8831 559.332,-49.2325 531.641,-38.811"/>
<polygon fill="blue" stroke="blue" points="532.706,-35.4723 522.114,-35.2257 530.24,-42.0237 532.706,-35.4723"/>
</g>
<!-- personhash6ec35b66cd6e0a3511d069d5f3426c26 -->
<g id="node5" class="node"><title>personhash6ec35b66cd6e0a3511d069d5f3426c26</title>
<polygon fill="none" stroke="black" points="398.25,-252 249.75,-252 249.75,-216 398.25,-216 398.25,-252"/>
<text text-anchor="middle" x="324" y="-230.3" font-family="Times,serif" font-size="14.00">Pearl Pebble Slaghoople</text>
</g>
<!-- personhash446a043e926d57d0178e6b253fc9474b -->
<g id="node14" class="node"><title>personhash446a043e926d57d0178e6b253fc9474b</title>
<polygon fill="none" stroke="black" points="372.25,-180 207.75,-180 207.75,-144 372.25,-144 372.25,-180"/>
<text text-anchor="middle" x="290" y="-158.3" font-family="Times,serif" font-size="14.00">Wilma Pebbles Slaghoople</text>
</g>
<!-- personhash6ec35b66cd6e0a3511d069d5f3426c26&#45;&gt;personhash446a043e926d57d0178e6b253fc9474b -->
<g id="edge13" class="edge"><title>personhash6ec35b66cd6e0a3511d069d5f3426c26&#45;&gt;personhash446a043e926d57d0178e6b253fc9474b</title>
<path fill="none" stroke="orange" d="M315.596,-215.697C311.725,-207.728 307.048,-198.1 302.757,-189.264"/>
<polygon fill="orange" stroke="orange" points="305.825,-187.57 298.308,-180.104 299.529,-190.629 305.825,-187.57"/>
</g>
<!-- personhash531f6f0f0fbd8faa929ba5a5f044b523 -->
<g id="node7" class="node"><title>personhash531f6f0f0fbd8faa929ba5a5f044b523</title>
<polygon fill="none" stroke="black" points="577.25,-108 476.75,-108 476.75,-72 577.25,-72 577.25,-108"/>
<text text-anchor="middle" x="527" y="-86.3" font-family="Times,serif" font-size="14.00">Secret Ex&#45;Wife</text>
</g>
<!-- personhash99214cc86351178547810bf9ec9165ce -->
<g id="node8" class="node"><title>personhash99214cc86351178547810bf9ec9165ce</title>
<polygon fill="none" stroke="black" points="112.25,-252 -0.25,-252 -0.25,-216 112.25,-216 112.25,-252"/>
<text text-anchor="middle" x="56" y="-230.3" font-family="Times,serif" font-size="14.00">Ricky Slaghoople</text>
</g>
<!-- personhash99214cc86351178547810bf9ec9165ce&#45;&gt;personhash446a043e926d57d0178e6b253fc9474b -->
<g id="edge1" class="edge"><title>personhash99214cc86351178547810bf9ec9165ce&#45;&gt;personhash446a043e926d57d0178e6b253fc9474b</title>
<path fill="none" stroke="blue" d="M112.347,-216.144C145.722,-206.16 188.199,-193.453 223.249,-182.968"/>
<polygon fill="blue" stroke="blue" points="224.347,-186.293 232.924,-180.074 222.341,-179.587 224.347,-186.293"/>
</g>
<!-- personhashf3bd41d554a73d4405246f6a1716e24e -->
<g id="node9" class="node"><title>personhashf3bd41d554a73d4405246f6a1716e24e</title>
<polygon fill="none" stroke="black" points="505.25,-252 416.75,-252 416.75,-216 505.25,-216 505.25,-252"/>
<text text-anchor="middle" x="461" y="-230.3" font-family="Times,serif" font-size="14.00">Ed Flintstone</text>
</g>
<!-- personhash2684a38f86d8cdd3eb928ec06f3e06dc -->
<g id="node16" class="node"><title>personhash2684a38f86d8cdd3eb928ec06f3e06dc</title>
<polygon fill="none" stroke="black" points="597.25,-180 390.75,-180 390.75,-144 597.25,-144 597.25,-180"/>
<text text-anchor="middle" x="494" y="-158.3" font-family="Times,serif" font-size="14.00">Frederick Joseph &quot;Fred&quot; Flintstone</text>
</g>
<!-- personhashf3bd41d554a73d4405246f6a1716e24e&#45;&gt;personhash2684a38f86d8cdd3eb928ec06f3e06dc -->
<g id="edge4" class="edge"><title>personhashf3bd41d554a73d4405246f6a1716e24e&#45;&gt;personhash2684a38f86d8cdd3eb928ec06f3e06dc</title>
<path fill="none" stroke="blue" d="M469.157,-215.697C472.914,-207.728 477.453,-198.1 481.618,-189.264"/>
<polygon fill="blue" stroke="blue" points="484.838,-190.642 485.937,-180.104 478.506,-187.657 484.838,-190.642"/>
</g>
<!-- personhashfc3be81c9d0f1cb98834b7454d0a8e4c -->
<g id="node10" class="node"><title>personhashfc3be81c9d0f1cb98834b7454d0a8e4c</title>
<polygon fill="none" stroke="black" points="680.25,-252 523.75,-252 523.75,-216 680.25,-216 680.25,-252"/>
<text text-anchor="middle" x="602" y="-230.3" font-family="Times,serif" font-size="14.00">Edna Hardrock Flintstone</text>
</g>
<!-- personhashfc3be81c9d0f1cb98834b7454d0a8e4c&#45;&gt;personhash2684a38f86d8cdd3eb928ec06f3e06dc -->
<g id="edge10" class="edge"><title>personhashfc3be81c9d0f1cb98834b7454d0a8e4c&#45;&gt;personhash2684a38f86d8cdd3eb928ec06f3e06dc</title>
<path fill="none" stroke="orange" d="M575.58,-215.876C561.59,-206.808 544.224,-195.552 529.114,-185.759"/>
<polygon fill="orange" stroke="orange" points="530.817,-182.692 520.521,-180.19 527.009,-188.566 530.817,-182.692"/>
</g>
<!-- personhashe94f0bfab8c987a7437ba4e1697c1cc0 -->
<g id="node11" class="node"><title>personhashe94f0bfab8c987a7437ba4e1697c1cc0</title>
<polygon fill="none" stroke="black" points="436,-324 382,-324 382,-288 436,-288 436,-324"/>
<text text-anchor="middle" x="409" y="-302.3" font-family="Times,serif" font-size="14.00">????</text>
</g>
<!-- personhashe94f0bfab8c987a7437ba4e1697c1cc0&#45;&gt;personhash1e20d4807103602e59e031553764eb1a -->
<g id="edge16" class="edge"><title>personhashe94f0bfab8c987a7437ba4e1697c1cc0&#45;&gt;personhash1e20d4807103602e59e031553764eb1a</title>
<path fill="none" stroke="orange" d="M381.95,-296.695C347.443,-286.101 286.768,-267.473 241.092,-253.449"/>
<polygon fill="orange" stroke="orange" points="241.883,-250.031 231.296,-250.442 239.828,-256.723 241.883,-250.031"/>
</g>
<!-- personhashe94f0bfab8c987a7437ba4e1697c1cc0&#45;&gt;personhashf3bd41d554a73d4405246f6a1716e24e -->
<g id="edge15" class="edge"><title>personhashe94f0bfab8c987a7437ba4e1697c1cc0&#45;&gt;personhashf3bd41d554a73d4405246f6a1716e24e</title>
<path fill="none" stroke="orange" d="M421.854,-287.697C428.025,-279.389 435.537,-269.277 442.324,-260.141"/>
<polygon fill="orange" stroke="orange" points="445.14,-262.219 448.294,-252.104 439.521,-258.045 445.14,-262.219"/>
</g>
<!-- personhash164e6f763be8a5c46463905765973a1a -->
<g id="node12" class="node"><title>personhash164e6f763be8a5c46463905765973a1a</title>
<polygon fill="none" stroke="black" points="457.5,-108 342.5,-108 342.5,-72 457.5,-72 457.5,-108"/>
<text text-anchor="middle" x="400" y="-86.3" font-family="Times,serif" font-size="14.00">Pebbles Flintstone</text>
</g>
<!-- personhash164e6f763be8a5c46463905765973a1a&#45;&gt;personhash471e5990486b9699975bcae2e85078a6 -->
<g id="edge11" class="edge"><title>personhash164e6f763be8a5c46463905765973a1a&#45;&gt;personhash471e5990486b9699975bcae2e85078a6</title>
<path fill="none" stroke="orange" d="M454.753,-71.9656C490.067,-60.9792 535.795,-46.7525 570.966,-35.8105"/>
<polygon fill="orange" stroke="orange" points="572.08,-39.1296 580.589,-32.8168 570,-32.4456 572.08,-39.1296"/>
</g>
<!-- personhash164e6f763be8a5c46463905765973a1a&#45;&gt;personhash7820a15a01dd041c5ba31bfc68e4c968 -->
<g id="edge12" class="edge"><title>personhash164e6f763be8a5c46463905765973a1a&#45;&gt;personhash7820a15a01dd041c5ba31bfc68e4c968</title>
<path fill="none" stroke="orange" d="M419.528,-71.6966C429.382,-62.9655 441.486,-52.2405 452.196,-42.7503"/>
<polygon fill="orange" stroke="orange" points="454.533,-45.3558 459.697,-36.1043 449.891,-40.1166 454.533,-45.3558"/>
</g>
<!-- personhash446a043e926d57d0178e6b253fc9474b&#45;&gt;personhash164e6f763be8a5c46463905765973a1a -->
<g id="edge14" class="edge"><title>personhash446a043e926d57d0178e6b253fc9474b&#45;&gt;personhash164e6f763be8a5c46463905765973a1a</title>
<path fill="none" stroke="orange" d="M316.909,-143.876C331.158,-134.808 348.846,-123.552 364.236,-113.759"/>
<polygon fill="orange" stroke="orange" points="366.43,-116.511 372.988,-108.19 362.672,-110.606 366.43,-116.511"/>
</g>
<!-- personhash0d1b08c34858921bc7c662b228acb7ba -->
<g id="node15" class="node"><title>personhash0d1b08c34858921bc7c662b228acb7ba</title>
<polygon fill="none" stroke="black" points="260,-324 206,-324 206,-288 260,-288 260,-324"/>
<text text-anchor="middle" x="233" y="-302.3" font-family="Times,serif" font-size="14.00">???</text>
</g>
<!-- personhash0d1b08c34858921bc7c662b228acb7ba&#45;&gt;personhash1e20d4807103602e59e031553764eb1a -->
<g id="edge7" class="edge"><title>personhash0d1b08c34858921bc7c662b228acb7ba&#45;&gt;personhash1e20d4807103602e59e031553764eb1a</title>
<path fill="none" stroke="blue" d="M220.146,-287.697C213.975,-279.389 206.463,-269.277 199.676,-260.141"/>
<polygon fill="blue" stroke="blue" points="202.479,-258.045 193.706,-252.104 196.86,-262.219 202.479,-258.045"/>
</g>
<!-- personhash0d1b08c34858921bc7c662b228acb7ba&#45;&gt;personhashf3bd41d554a73d4405246f6a1716e24e -->
<g id="edge6" class="edge"><title>personhash0d1b08c34858921bc7c662b228acb7ba&#45;&gt;personhashf3bd41d554a73d4405246f6a1716e24e</title>
<path fill="none" stroke="blue" d="M260.149,-296.816C292.598,-287.016 348.786,-269.987 406.81,-252.045"/>
<polygon fill="blue" stroke="blue" points="407.996,-255.342 416.513,-249.041 405.926,-248.655 407.996,-255.342"/>
</g>
<!-- personhash2684a38f86d8cdd3eb928ec06f3e06dc&#45;&gt;personhash531f6f0f0fbd8faa929ba5a5f044b523 -->
<g id="edge17" class="edge"><title>personhash2684a38f86d8cdd3eb928ec06f3e06dc&#45;&gt;personhash531f6f0f0fbd8faa929ba5a5f044b523</title>
<path fill="none" stroke="black" stroke-dasharray="1,5" d="M502.157,-143.697C505.914,-135.728 510.453,-126.1 514.618,-117.264"/>
<polygon fill="black" stroke="black" points="517.838,-118.642 518.937,-108.104 511.506,-115.657 517.838,-118.642"/>
</g>
<!-- personhash2684a38f86d8cdd3eb928ec06f3e06dc&#45;&gt;personhash164e6f763be8a5c46463905765973a1a -->
<g id="edge8" class="edge"><title>personhash2684a38f86d8cdd3eb928ec06f3e06dc&#45;&gt;personhash164e6f763be8a5c46463905765973a1a</title>
<path fill="none" stroke="blue" d="M470.764,-143.697C458.812,-134.796 444.077,-123.823 431.153,-114.199"/>
<polygon fill="blue" stroke="blue" points="433.08,-111.27 422.969,-108.104 428.899,-116.884 433.08,-111.27"/>
</g>
</g>
</svg>
