<?xml version="1.0" encoding="UTF-8" standalone="no"?>
<!DOCTYPE svg PUBLIC "-//W3C//DTD SVG 1.1//EN"
 "http://www.w3.org/Graphics/SVG/1.1/DTD/svg11.dtd">
<!-- Generated by graphviz version 2.26.3 (20100126.1600)
 -->
<!-- Title: family_tree Pages: 1 -->
<svg width="1026pt" height="332pt"
 viewBox="0.00 0.00 1026.00 332.00" xmlns="http://www.w3.org/2000/svg" xmlns:xlink="http://www.w3.org/1999/xlink">
<g id="graph1" class="graph" transform="scale(1 1) rotate(0) translate(4 328)">
<title>family_tree</title>
<polygon fill="white" stroke="white" points="-4,5 -4,-328 1023,-328 1023,5 -4,5"/>
<!-- personhash50d359571a4555711e46017cc54beeda -->
<g id="node1" class="node"><title>personhash50d359571a4555711e46017cc54beeda</title>
<polygon fill="none" stroke="black" points="1018,-180 858,-180 858,-144 1018,-144 1018,-180"/>
<text text-anchor="middle" x="938" y="-157.9" font-family="Times Roman,serif" font-size="14.00">Betty Jean McBricker</text>
</g>
<!-- personhash2bafddd63f0b0592955c03dd2b0d0300 -->
<g id="node4" class="node"><title>personhash2bafddd63f0b0592955c03dd2b0d0300</title>
<polygon fill="none" stroke="black" points="861,-108 703,-108 703,-72 861,-72 861,-108"/>
<text text-anchor="middle" x="782" y="-85.9" font-family="Times Roman,serif" font-size="14.00">Bamm&#45;Bamm Rubble</text>
</g>
<!-- personhash50d359571a4555711e46017cc54beeda&#45;&gt;personhash2bafddd63f0b0592955c03dd2b0d0300 -->
<g id="edge18" class="edge"><title>personhash50d359571a4555711e46017cc54beeda&#45;&gt;personhash2bafddd63f0b0592955c03dd2b0d0300</title>
<path fill="none" stroke="orange" d="M898.635,-143.831C877.863,-134.245 852.202,-122.401 830.242,-112.266"/>
<polygon fill="orange" stroke="orange" points="831.629,-109.051 821.082,-108.038 828.695,-115.406 831.629,-109.051"/>
</g>
<!-- personhashf3bd41d554a73d4405246f6a1716e24e -->
<g id="node2" class="node"><title>personhashf3bd41d554a73d4405246f6a1716e24e</title>
<polygon fill="none" stroke="black" points="596,-252 490,-252 490,-216 596,-216 596,-252"/>
<text text-anchor="middle" x="543" y="-229.9" font-family="Times Roman,serif" font-size="14.00">Ed Flintstone</text>
</g>
<!-- personhash2684a38f86d8cdd3eb928ec06f3e06dc -->
<g id="node15" class="node"><title>personhash2684a38f86d8cdd3eb928ec06f3e06dc</title>
<polygon fill="none" stroke="black" points="706,-180 458,-180 458,-144 706,-144 706,-180"/>
<text text-anchor="middle" x="582" y="-157.9" font-family="Times Roman,serif" font-size="14.00">Frederick Joseph &quot;Fred&quot; Flintstone</text>
</g>
<!-- personhashf3bd41d554a73d4405246f6a1716e24e&#45;&gt;personhash2684a38f86d8cdd3eb928ec06f3e06dc -->
<g id="edge4" class="edge"><title>personhashf3bd41d554a73d4405246f6a1716e24e&#45;&gt;personhash2684a38f86d8cdd3eb928ec06f3e06dc</title>
<path fill="none" stroke="blue" d="M552.841,-215.831C557.196,-207.792 562.41,-198.167 567.217,-189.292"/>
<polygon fill="blue" stroke="blue" points="570.341,-190.873 572.026,-180.413 564.186,-187.539 570.341,-190.873"/>
</g>
<!-- personhash1e20d4807103602e59e031553764eb1a -->
<g id="node3" class="node"><title>personhash1e20d4807103602e59e031553764eb1a</title>
<polygon fill="none" stroke="black" points="274,-252 150,-252 150,-216 274,-216 274,-252"/>
<text text-anchor="middle" x="212" y="-229.9" font-family="Times Roman,serif" font-size="14.00">Zeke Flintstone</text>
</g>
<!-- personhash471e5990486b9699975bcae2e85078a6 -->
<g id="node6" class="node"><title>personhash471e5990486b9699975bcae2e85078a6</title>
<polygon fill="none" stroke="black" points="785,-36 685,-36 685,-1.77636e-14 785,-3.55271e-15 785,-36"/>
<text text-anchor="middle" x="735" y="-13.9" font-family="Times Roman,serif" font-size="14.00">Roxy Rubble</text>
</g>
<!-- personhash2bafddd63f0b0592955c03dd2b0d0300&#45;&gt;personhash471e5990486b9699975bcae2e85078a6 -->
<g id="edge6" class="edge"><title>personhash2bafddd63f0b0592955c03dd2b0d0300&#45;&gt;personhash471e5990486b9699975bcae2e85078a6</title>
<path fill="none" stroke="blue" d="M770.14,-71.8314C764.837,-63.7079 758.476,-53.9637 752.633,-45.0118"/>
<polygon fill="blue" stroke="blue" points="755.417,-42.8739 747.02,-36.4133 749.555,-46.7003 755.417,-42.8739"/>
</g>
<!-- personhash7820a15a01dd041c5ba31bfc68e4c968 -->
<g id="node11" class="node"><title>personhash7820a15a01dd041c5ba31bfc68e4c968</title>
<polygon fill="none" stroke="black" points="620,-36 522,-36 522,-1.77636e-14 620,-3.55271e-15 620,-36"/>
<text text-anchor="middle" x="571" y="-13.9" font-family="Times Roman,serif" font-size="14.00">Chip Rubble</text>
</g>
<!-- personhash2bafddd63f0b0592955c03dd2b0d0300&#45;&gt;personhash7820a15a01dd041c5ba31bfc68e4c968 -->
<g id="edge8" class="edge"><title>personhash2bafddd63f0b0592955c03dd2b0d0300&#45;&gt;personhash7820a15a01dd041c5ba31bfc68e4c968</title>
<path fill="none" stroke="blue" d="M729.028,-71.9243C698.846,-61.6252 660.963,-48.6984 629.855,-38.0833"/>
<polygon fill="blue" stroke="blue" points="630.606,-34.6414 620.012,-34.7244 628.346,-41.2664 630.606,-34.6414"/>
</g>
<!-- personhash6ec35b66cd6e0a3511d069d5f3426c26 -->
<g id="node5" class="node"><title>personhash6ec35b66cd6e0a3511d069d5f3426c26</title>
<polygon fill="none" stroke="black" points="472,-252 292,-252 292,-216 472,-216 472,-252"/>
<text text-anchor="middle" x="382" y="-229.9" font-family="Times Roman,serif" font-size="14.00">Pearl Pebble Slaghoople</text>
</g>
<!-- personhash446a043e926d57d0178e6b253fc9474b -->
<g id="node7" class="node"><title>personhash446a043e926d57d0178e6b253fc9474b</title>
<polygon fill="none" stroke="black" points="440,-180 244,-180 244,-144 440,-144 440,-180"/>
<text text-anchor="middle" x="342" y="-157.9" font-family="Times Roman,serif" font-size="14.00">Wilma Pebbles Slaghoople</text>
</g>
<!-- personhash6ec35b66cd6e0a3511d069d5f3426c26&#45;&gt;personhash446a043e926d57d0178e6b253fc9474b -->
<g id="edge26" class="edge"><title>personhash6ec35b66cd6e0a3511d069d5f3426c26&#45;&gt;personhash446a043e926d57d0178e6b253fc9474b</title>
<path fill="none" stroke="orange" d="M371.906,-215.831C367.44,-207.792 362.093,-198.167 357.162,-189.292"/>
<polygon fill="orange" stroke="orange" points="360.146,-187.455 352.23,-180.413 354.027,-190.855 360.146,-187.455"/>
</g>
<!-- personhash164e6f763be8a5c46463905765973a1a -->
<g id="node10" class="node"><title>personhash164e6f763be8a5c46463905765973a1a</title>
<polygon fill="none" stroke="black" points="549,-108 407,-108 407,-72 549,-72 549,-108"/>
<text text-anchor="middle" x="478" y="-85.9" font-family="Times Roman,serif" font-size="14.00">Pebbles Flintstone</text>
</g>
<!-- personhash446a043e926d57d0178e6b253fc9474b&#45;&gt;personhash164e6f763be8a5c46463905765973a1a -->
<g id="edge32" class="edge"><title>personhash446a043e926d57d0178e6b253fc9474b&#45;&gt;personhash164e6f763be8a5c46463905765973a1a</title>
<path fill="none" stroke="orange" d="M376.319,-143.831C394.036,-134.452 415.834,-122.911 434.698,-112.924"/>
<polygon fill="orange" stroke="orange" points="436.492,-115.935 443.692,-108.163 433.217,-109.748 436.492,-115.935"/>
</g>
<!-- personhashfc3be81c9d0f1cb98834b7454d0a8e4c -->
<g id="node8" class="node"><title>personhashfc3be81c9d0f1cb98834b7454d0a8e4c</title>
<polygon fill="none" stroke="black" points="804,-252 614,-252 614,-216 804,-216 804,-252"/>
<text text-anchor="middle" x="709" y="-229.9" font-family="Times Roman,serif" font-size="14.00">Edna Hardrock Flintstone</text>
</g>
<!-- personhashfc3be81c9d0f1cb98834b7454d0a8e4c&#45;&gt;personhash2684a38f86d8cdd3eb928ec06f3e06dc -->
<g id="edge20" class="edge"><title>personhashfc3be81c9d0f1cb98834b7454d0a8e4c&#45;&gt;personhash2684a38f86d8cdd3eb928ec06f3e06dc</title>
<path fill="none" stroke="orange" d="M676.953,-215.831C660.558,-206.537 640.421,-195.121 622.917,-185.197"/>
<polygon fill="orange" stroke="orange" points="624.463,-182.05 614.037,-180.163 621.01,-188.139 624.463,-182.05"/>
</g>
<!-- personhash99214cc86351178547810bf9ec9165ce -->
<g id="node9" class="node"><title>personhash99214cc86351178547810bf9ec9165ce</title>
<polygon fill="none" stroke="black" points="132,-252 5.68434e-14,-252 0,-216 132,-216 132,-252"/>
<text text-anchor="middle" x="66" y="-229.9" font-family="Times Roman,serif" font-size="14.00">Ricky Slaghoople</text>
</g>
<!-- personhash99214cc86351178547810bf9ec9165ce&#45;&gt;personhash446a043e926d57d0178e6b253fc9474b -->
<g id="edge2" class="edge"><title>personhash99214cc86351178547810bf9ec9165ce&#45;&gt;personhash446a043e926d57d0178e6b253fc9474b</title>
<path fill="none" stroke="blue" d="M132.109,-216.754C171.381,-206.509 221.431,-193.453 262.805,-182.659"/>
<polygon fill="blue" stroke="blue" points="263.786,-186.021 272.579,-180.11 262.019,-179.247 263.786,-186.021"/>
</g>
<!-- personhash164e6f763be8a5c46463905765973a1a&#45;&gt;personhash471e5990486b9699975bcae2e85078a6 -->
<g id="edge22" class="edge"><title>personhash164e6f763be8a5c46463905765973a1a&#45;&gt;personhash471e5990486b9699975bcae2e85078a6</title>
<path fill="none" stroke="orange" d="M542.52,-71.9243C583.094,-60.5575 635.092,-45.9898 674.813,-34.8618"/>
<polygon fill="orange" stroke="orange" points="675.947,-38.1788 684.632,-32.1108 674.059,-31.4383 675.947,-38.1788"/>
</g>
<!-- personhash164e6f763be8a5c46463905765973a1a&#45;&gt;personhash7820a15a01dd041c5ba31bfc68e4c968 -->
<g id="edge24" class="edge"><title>personhash164e6f763be8a5c46463905765973a1a&#45;&gt;personhash7820a15a01dd041c5ba31bfc68e4c968</title>
<path fill="none" stroke="orange" d="M501.468,-71.8314C513.033,-62.8779 527.14,-51.9558 539.618,-42.2955"/>
<polygon fill="orange" stroke="orange" points="541.775,-45.0521 547.54,-36.1628 537.49,-39.5171 541.775,-45.0521"/>
</g>
<!-- personhashe94f0bfab8c987a7437ba4e1697c1cc0 -->
<g id="node12" class="node"><title>personhashe94f0bfab8c987a7437ba4e1697c1cc0</title>
<polygon fill="none" stroke="black" points="505,-324 451,-324 451,-288 505,-288 505,-324"/>
<text text-anchor="middle" x="478" y="-301.9" font-family="Times Roman,serif" font-size="14.00">????</text>
</g>
<!-- personhashe94f0bfab8c987a7437ba4e1697c1cc0&#45;&gt;personhashf3bd41d554a73d4405246f6a1716e24e -->
<g id="edge28" class="edge"><title>personhashe94f0bfab8c987a7437ba4e1697c1cc0&#45;&gt;personhashf3bd41d554a73d4405246f6a1716e24e</title>
<path fill="none" stroke="orange" d="M494.402,-287.831C502.042,-279.369 511.268,-269.149 519.621,-259.897"/>
<polygon fill="orange" stroke="orange" points="522.274,-262.181 526.377,-252.413 517.078,-257.491 522.274,-262.181"/>
</g>
<!-- personhashe94f0bfab8c987a7437ba4e1697c1cc0&#45;&gt;personhash1e20d4807103602e59e031553764eb1a -->
<g id="edge30" class="edge"><title>personhashe94f0bfab8c987a7437ba4e1697c1cc0&#45;&gt;personhash1e20d4807103602e59e031553764eb1a</title>
<path fill="none" stroke="orange" d="M450.535,-298.566C411.529,-288.008 338.722,-268.301 283.763,-253.425"/>
<polygon fill="orange" stroke="orange" points="284.635,-250.035 274.067,-250.8 282.806,-256.791 284.635,-250.035"/>
</g>
<!-- personhash531f6f0f0fbd8faa929ba5a5f044b523 -->
<g id="node13" class="node"><title>personhash531f6f0f0fbd8faa929ba5a5f044b523</title>
<polygon fill="none" stroke="black" points="685,-108 567,-108 567,-72 685,-72 685,-108"/>
<text text-anchor="middle" x="626" y="-85.9" font-family="Times Roman,serif" font-size="14.00">Secret Ex&#45;Wife</text>
</g>
<!-- personhash0d1b08c34858921bc7c662b228acb7ba -->
<g id="node14" class="node"><title>personhash0d1b08c34858921bc7c662b228acb7ba</title>
<polygon fill="none" stroke="black" points="304,-324 250,-324 250,-288 304,-288 304,-324"/>
<text text-anchor="middle" x="277" y="-301.9" font-family="Times Roman,serif" font-size="14.00">???</text>
</g>
<!-- personhash0d1b08c34858921bc7c662b228acb7ba&#45;&gt;personhashf3bd41d554a73d4405246f6a1716e24e -->
<g id="edge10" class="edge"><title>personhash0d1b08c34858921bc7c662b228acb7ba&#45;&gt;personhashf3bd41d554a73d4405246f6a1716e24e</title>
<path fill="none" stroke="blue" d="M304.114,-299.042C341.491,-289.402 411.181,-271.259 480.194,-252.195"/>
<polygon fill="blue" stroke="blue" points="481.221,-255.542 489.924,-249.499 479.352,-248.796 481.221,-255.542"/>
</g>
<!-- personhash0d1b08c34858921bc7c662b228acb7ba&#45;&gt;personhash1e20d4807103602e59e031553764eb1a -->
<g id="edge12" class="edge"><title>personhash0d1b08c34858921bc7c662b228acb7ba&#45;&gt;personhash1e20d4807103602e59e031553764eb1a</title>
<path fill="none" stroke="blue" d="M260.598,-287.831C252.958,-279.369 243.732,-269.149 235.379,-259.897"/>
<polygon fill="blue" stroke="blue" points="237.922,-257.491 228.623,-252.413 232.726,-262.181 237.922,-257.491"/>
</g>
<!-- personhash2684a38f86d8cdd3eb928ec06f3e06dc&#45;&gt;personhash164e6f763be8a5c46463905765973a1a -->
<g id="edge14" class="edge"><title>personhash2684a38f86d8cdd3eb928ec06f3e06dc&#45;&gt;personhash164e6f763be8a5c46463905765973a1a</title>
<path fill="none" stroke="blue" d="M555.756,-143.831C542.701,-134.793 526.747,-123.748 512.695,-114.02"/>
<polygon fill="blue" stroke="blue" points="514.449,-110.977 504.235,-108.163 510.465,-116.733 514.449,-110.977"/>
</g>
<!-- personhash2684a38f86d8cdd3eb928ec06f3e06dc&#45;&gt;personhash531f6f0f0fbd8faa929ba5a5f044b523 -->
<g id="edge34" class="edge"><title>personhash2684a38f86d8cdd3eb928ec06f3e06dc&#45;&gt;personhash531f6f0f0fbd8faa929ba5a5f044b523</title>
<path fill="none" stroke="black" stroke-dasharray="1,5" d="M593.103,-143.831C598.067,-135.708 604.022,-125.964 609.493,-117.012"/>
<polygon fill="black" stroke="black" points="612.519,-118.771 614.747,-108.413 606.546,-115.121 612.519,-118.771"/>
</g>
<!-- personhashcbca31e545cad611edbfc3682a036912 -->
<g id="node16" class="node"><title>personhashcbca31e545cad611edbfc3682a036912</title>
<polygon fill="none" stroke="black" points="840,-180 724,-180 724,-144 840,-144 840,-180"/>
<text text-anchor="middle" x="782" y="-157.9" font-family="Times Roman,serif" font-size="14.00">Barney Rubble</text>
</g>
<!-- personhashcbca31e545cad611edbfc3682a036912&#45;&gt;personhash2bafddd63f0b0592955c03dd2b0d0300 -->
<g id="edge16" class="edge"><title>personhashcbca31e545cad611edbfc3682a036912&#45;&gt;personhash2bafddd63f0b0592955c03dd2b0d0300</title>
<path fill="none" stroke="blue" d="M782,-143.831C782,-136.131 782,-126.974 782,-118.417"/>
<polygon fill="blue" stroke="blue" points="785.5,-118.413 782,-108.413 778.5,-118.413 785.5,-118.413"/>
</g>
</g>
</svg>
