<?xml version="1.0" encoding="UTF-8" standalone="no"?>
<!DOCTYPE svg PUBLIC "-//W3C//DTD SVG 1.1//EN"
 "http://www.w3.org/Graphics/SVG/1.1/DTD/svg11.dtd">
<!-- Generated by graphviz version 2.36.0 (20140111.2315)
 -->
<!-- Title: family_tree Pages: 1 -->
<svg width="638pt" height="116pt"
 viewBox="0.00 0.00 638.00 116.00" xmlns="http://www.w3.org/2000/svg" xmlns:xlink="http://www.w3.org/1999/xlink">
<g id="graph0" class="graph" transform="scale(1 1) rotate(0) translate(4 112)">
<title>family_tree</title>
<polygon fill="white" stroke="none" points="-4,4 -4,-112 634,-112 634,4 -4,4"/>
<!-- personhash0cc175b9c0f1b6a831c399e269772661 -->
<g id="node1" class="node"><title>personhash0cc175b9c0f1b6a831c399e269772661</title>
<polygon fill="none" stroke="black" points="90,-108 36,-108 36,-72 90,-72 90,-108"/>
<text text-anchor="middle" x="63" y="-86.3" font-family="Times,serif" font-size="14.00">a</text>
</g>
<!-- personhash4a8a08f09d37b73795649038408b5f33 -->
<g id="node2" class="node"><title>personhash4a8a08f09d37b73795649038408b5f33</title>
<polygon fill="none" stroke="black" points="54,-36 0,-36 0,-0 54,-0 54,-36"/>
<text text-anchor="middle" x="27" y="-14.3" font-family="Times,serif" font-size="14.00">c</text>
</g>
<!-- personhash0cc175b9c0f1b6a831c399e269772661&#45;&gt;personhash4a8a08f09d37b73795649038408b5f33 -->
<g id="edge2" class="edge"><title>personhash0cc175b9c0f1b6a831c399e269772661&#45;&gt;personhash4a8a08f09d37b73795649038408b5f33</title>
<path fill="none" stroke="blue" d="M54.1011,-71.6966C50.0032,-63.7284 45.0512,-54.0995 40.5073,-45.2641"/>
<polygon fill="blue" stroke="blue" points="43.4826,-43.3965 35.7965,-36.1043 37.2575,-46.598 43.4826,-43.3965"/>
</g>
<!-- personhash92eb5ffee6ae2fec3ad71c777531578f -->
<g id="node3" class="node"><title>personhash92eb5ffee6ae2fec3ad71c777531578f</title>
<polygon fill="none" stroke="black" points="126,-36 72,-36 72,-0 126,-0 126,-36"/>
<text text-anchor="middle" x="99" y="-14.3" font-family="Times,serif" font-size="14.00">b</text>
</g>
<!-- personhash0cc175b9c0f1b6a831c399e269772661&#45;&gt;personhash92eb5ffee6ae2fec3ad71c777531578f -->
<g id="edge1" class="edge"><title>personhash0cc175b9c0f1b6a831c399e269772661&#45;&gt;personhash92eb5ffee6ae2fec3ad71c777531578f</title>
<path fill="none" stroke="blue" d="M71.8989,-71.6966C75.9968,-63.7284 80.9488,-54.0995 85.4927,-45.2641"/>
<polygon fill="blue" stroke="blue" points="88.7425,-46.598 90.2035,-36.1043 82.5174,-43.3965 88.7425,-46.598"/>
</g>
<!-- personhashe1671797c52e15f763380b45e841ec32 -->
<g id="node4" class="node"><title>personhashe1671797c52e15f763380b45e841ec32</title>
<polygon fill="none" stroke="black" points="198,-36 144,-36 144,-0 198,-0 198,-36"/>
<text text-anchor="middle" x="171" y="-14.3" font-family="Times,serif" font-size="14.00">e</text>
</g>
<!-- personhash8277e0910d750195b448797616e091ad -->
<g id="node5" class="node"><title>personhash8277e0910d750195b448797616e091ad</title>
<polygon fill="none" stroke="black" points="198,-108 144,-108 144,-72 198,-72 198,-108"/>
<text text-anchor="middle" x="171" y="-86.3" font-family="Times,serif" font-size="14.00">d</text>
</g>
<!-- personhash8277e0910d750195b448797616e091ad&#45;&gt;personhashe1671797c52e15f763380b45e841ec32 -->
<g id="edge3" class="edge"><title>personhash8277e0910d750195b448797616e091ad&#45;&gt;personhashe1671797c52e15f763380b45e841ec32</title>
<path fill="none" stroke="blue" d="M171,-71.6966C171,-63.9827 171,-54.7125 171,-46.1124"/>
<polygon fill="blue" stroke="blue" points="174.5,-46.1043 171,-36.1043 167.5,-46.1044 174.5,-46.1043"/>
</g>
<!-- personhashb2f5ff47436671b6e533d8dc3614845d -->
<g id="node6" class="node"><title>personhashb2f5ff47436671b6e533d8dc3614845d</title>
<polygon fill="none" stroke="black" points="270,-36 216,-36 216,-0 270,-0 270,-36"/>
<text text-anchor="middle" x="243" y="-14.3" font-family="Times,serif" font-size="14.00">g</text>
</g>
<!-- personhash8fa14cdd754f91cc6554c9e71929cce7 -->
<g id="node7" class="node"><title>personhash8fa14cdd754f91cc6554c9e71929cce7</title>
<polygon fill="none" stroke="black" points="306,-108 252,-108 252,-72 306,-72 306,-108"/>
<text text-anchor="middle" x="279" y="-86.3" font-family="Times,serif" font-size="14.00">f</text>
</g>
<!-- personhash8fa14cdd754f91cc6554c9e71929cce7&#45;&gt;personhashb2f5ff47436671b6e533d8dc3614845d -->
<g id="edge5" class="edge"><title>personhash8fa14cdd754f91cc6554c9e71929cce7&#45;&gt;personhashb2f5ff47436671b6e533d8dc3614845d</title>
<path fill="none" stroke="orange" d="M270.101,-71.6966C266.003,-63.7284 261.051,-54.0995 256.507,-45.2641"/>
<polygon fill="orange" stroke="orange" points="259.483,-43.3965 251.797,-36.1043 253.258,-46.598 259.483,-43.3965"/>
</g>
<!-- personhash2510c39011c5be704182423e3a695e91 -->
<g id="node9" class="node"><title>personhash2510c39011c5be704182423e3a695e91</title>
<polygon fill="none" stroke="black" points="342,-36 288,-36 288,-0 342,-0 342,-36"/>
<text text-anchor="middle" x="315" y="-14.3" font-family="Times,serif" font-size="14.00">h</text>
</g>
<!-- personhash8fa14cdd754f91cc6554c9e71929cce7&#45;&gt;personhash2510c39011c5be704182423e3a695e91 -->
<g id="edge6" class="edge"><title>personhash8fa14cdd754f91cc6554c9e71929cce7&#45;&gt;personhash2510c39011c5be704182423e3a695e91</title>
<path fill="none" stroke="orange" d="M287.899,-71.6966C291.997,-63.7284 296.949,-54.0995 301.493,-45.2641"/>
<polygon fill="orange" stroke="orange" points="304.742,-46.598 306.203,-36.1043 298.517,-43.3965 304.742,-46.598"/>
</g>
<!-- personhash865c0c0b4ab0e063e5caa3387c1a8741 -->
<g id="node8" class="node"><title>personhash865c0c0b4ab0e063e5caa3387c1a8741</title>
<polygon fill="none" stroke="black" points="414,-108 360,-108 360,-72 414,-72 414,-108"/>
<text text-anchor="middle" x="387" y="-86.3" font-family="Times,serif" font-size="14.00">i</text>
</g>
<!-- personhash363b122c528f54df4a0446b6bab05515 -->
<g id="node11" class="node"><title>personhash363b122c528f54df4a0446b6bab05515</title>
<polygon fill="none" stroke="black" points="414,-36 360,-36 360,-0 414,-0 414,-36"/>
<text text-anchor="middle" x="387" y="-14.3" font-family="Times,serif" font-size="14.00">j</text>
</g>
<!-- personhash865c0c0b4ab0e063e5caa3387c1a8741&#45;&gt;personhash363b122c528f54df4a0446b6bab05515 -->
<g id="edge4" class="edge"><title>personhash865c0c0b4ab0e063e5caa3387c1a8741&#45;&gt;personhash363b122c528f54df4a0446b6bab05515</title>
<path fill="none" stroke="orange" d="M387,-71.6966C387,-63.9827 387,-54.7125 387,-46.1124"/>
<polygon fill="orange" stroke="orange" points="390.5,-46.1043 387,-36.1043 383.5,-46.1044 390.5,-46.1043"/>
</g>
<!-- personhash8ce4b16b22b58894aa86c421e8759df3 -->
<g id="node10" class="node"><title>personhash8ce4b16b22b58894aa86c421e8759df3</title>
<polygon fill="none" stroke="black" points="522,-108 468,-108 468,-72 522,-72 522,-108"/>
<text text-anchor="middle" x="495" y="-86.3" font-family="Times,serif" font-size="14.00">k</text>
</g>
<!-- personhash6f8f57715090da2632453988d9a1501b -->
<g id="node12" class="node"><title>personhash6f8f57715090da2632453988d9a1501b</title>
<polygon fill="none" stroke="black" points="486,-36 432,-36 432,-0 486,-0 486,-36"/>
<text text-anchor="middle" x="459" y="-14.3" font-family="Times,serif" font-size="14.00">m</text>
</g>
<!-- personhash8ce4b16b22b58894aa86c421e8759df3&#45;&gt;personhash6f8f57715090da2632453988d9a1501b -->
<g id="edge8" class="edge"><title>personhash8ce4b16b22b58894aa86c421e8759df3&#45;&gt;personhash6f8f57715090da2632453988d9a1501b</title>
<path fill="none" stroke="black" stroke-dasharray="1,5" d="M486.101,-71.6966C482.003,-63.7284 477.051,-54.0995 472.507,-45.2641"/>
<polygon fill="black" stroke="black" points="475.483,-43.3965 467.797,-36.1043 469.258,-46.598 475.483,-43.3965"/>
</g>
<!-- personhash2db95e8e1a9267b7a1188556b2013b33 -->
<g id="node13" class="node"><title>personhash2db95e8e1a9267b7a1188556b2013b33</title>
<polygon fill="none" stroke="black" points="558,-36 504,-36 504,-0 558,-0 558,-36"/>
<text text-anchor="middle" x="531" y="-14.3" font-family="Times,serif" font-size="14.00">l</text>
</g>
<!-- personhash8ce4b16b22b58894aa86c421e8759df3&#45;&gt;personhash2db95e8e1a9267b7a1188556b2013b33 -->
<g id="edge7" class="edge"><title>personhash8ce4b16b22b58894aa86c421e8759df3&#45;&gt;personhash2db95e8e1a9267b7a1188556b2013b33</title>
<path fill="none" stroke="black" stroke-dasharray="1,5" d="M503.899,-71.6966C507.997,-63.7284 512.949,-54.0995 517.493,-45.2641"/>
<polygon fill="black" stroke="black" points="520.742,-46.598 522.203,-36.1043 514.517,-43.3965 520.742,-46.598"/>
</g>
<!-- personhashd95679752134a2d9eb61dbd7b91c4bcc -->
<g id="node14" class="node"><title>personhashd95679752134a2d9eb61dbd7b91c4bcc</title>
<polygon fill="none" stroke="black" points="630,-36 576,-36 576,-0 630,-0 630,-36"/>
<text text-anchor="middle" x="603" y="-14.3" font-family="Times,serif" font-size="14.00">o</text>
</g>
<!-- personhash7b8b965ad4bca0e41ab51de7b31363a1 -->
<g id="node15" class="node"><title>personhash7b8b965ad4bca0e41ab51de7b31363a1</title>
<polygon fill="none" stroke="black" points="630,-108 576,-108 576,-72 630,-72 630,-108"/>
<text text-anchor="middle" x="603" y="-86.3" font-family="Times,serif" font-size="14.00">n</text>
</g>
<!-- personhash7b8b965ad4bca0e41ab51de7b31363a1&#45;&gt;personhashd95679752134a2d9eb61dbd7b91c4bcc -->
<g id="edge9" class="edge"><title>personhash7b8b965ad4bca0e41ab51de7b31363a1&#45;&gt;personhashd95679752134a2d9eb61dbd7b91c4bcc</title>
<path fill="none" stroke="black" stroke-dasharray="1,5" d="M603,-71.6966C603,-63.9827 603,-54.7125 603,-46.1124"/>
<polygon fill="black" stroke="black" points="606.5,-46.1043 603,-36.1043 599.5,-46.1044 606.5,-46.1043"/>
</g>
</g>
</svg>
